<svg width="756" height="711" viewBox="0 0 756 711" fill="none" xmlns="http://www.w3.org/2000/svg">
<path d="M696.7 59.9017C746.44 121.662 731.25 236.662 723.08 343.492C714.91 450.322 714.23 549.002 664.49 616.052C614.58 683.152 515.94 718.372 426.81 708.852C337.68 699.172 258.23 644.592 179.81 577.492C101.39 510.392 23.89 431.002 26.22 353.832C28.55 276.662 110.68 201.942 189.13 140.192C267.58 78.4417 342.35 29.6917 437.13 9.66173C531.91 -10.3683 647 -1.84827 696.7 59.9017Z" fill="#E5E5E5"/>
<path d="M677.56 128.322H78.0999V563.132H677.56V128.322Z" fill="white"/>
<path d="M677.56 128.322H78.0999V176.002H677.56V128.322Z" fill="#F9F9F9"/>
<path d="M569.85 152.162C569.852 154.508 569.158 156.803 567.855 158.755C566.553 160.706 564.701 162.228 562.533 163.127C560.366 164.026 557.98 164.262 555.679 163.804C553.377 163.347 551.263 162.217 549.604 160.558C547.944 158.899 546.815 156.785 546.357 154.483C545.9 152.182 546.136 149.796 547.035 147.629C547.933 145.461 549.455 143.609 551.407 142.306C553.359 141.004 555.653 140.31 558 140.312C561.142 140.314 564.154 141.564 566.376 143.785C568.598 146.007 569.847 149.02 569.85 152.162" fill="#FB5D64"/>
<path d="M615.41 152.162C615.412 154.508 614.718 156.802 613.416 158.754C612.114 160.705 610.262 162.227 608.095 163.126C605.928 164.025 603.543 164.262 601.242 163.805C598.941 163.349 596.827 162.22 595.167 160.562C593.507 158.903 592.377 156.79 591.918 154.489C591.46 152.188 591.694 149.803 592.592 147.635C593.489 145.468 595.009 143.615 596.96 142.311C598.91 141.008 601.204 140.312 603.55 140.312C606.694 140.312 609.709 141.56 611.933 143.782C614.156 146.004 615.407 149.018 615.41 152.162" fill="#FB5D64"/>
<path d="M660.97 152.162C660.972 154.51 660.277 156.805 658.973 158.758C657.669 160.71 655.815 162.232 653.646 163.13C651.477 164.028 649.09 164.262 646.787 163.802C644.485 163.342 642.371 162.21 640.713 160.547C639.055 158.885 637.927 156.768 637.474 154.465C637.02 152.161 637.26 149.775 638.163 147.608C639.067 145.441 640.593 143.591 642.549 142.292C644.505 140.993 646.802 140.304 649.15 140.312C652.294 140.312 655.309 141.56 657.533 143.782C659.756 146.004 661.007 149.018 661.01 152.162" fill="#FB5D64"/>
<path d="M602.99 233.242C596.75 233.242 595.1 245.622 583.99 245.622H518.48V311.472H623.25V233.242H602.99Z" fill="#F3F3F3"/>
<path d="M469.33 233.242C463.09 233.242 461.44 245.622 450.33 245.622H384.82V311.472H489.59V233.242H469.33Z" fill="#F3F3F3"/>
<path d="M316.67 245.622H251.15V311.472H355.93V233.242H335.66C329.43 233.242 327.78 245.622 316.66 245.622" fill="#F3F3F3"/>
<path d="M488.27 368.712L463.05 460.542L545.96 444.472L488.27 368.712Z" stroke="#FB5D64" stroke-width="3" stroke-linecap="round" stroke-linejoin="round"/>
<path d="M381.12 599.492C398.787 599.492 413.11 585.169 413.11 567.502C413.11 549.834 398.787 535.512 381.12 535.512C363.452 535.512 349.13 549.834 349.13 567.502C349.13 585.169 363.452 599.492 381.12 599.492Z" stroke="#FB5D64" stroke-width="3" stroke-linecap="round" stroke-linejoin="round"/>
<path d="M422.64 532.712C432.034 532.712 439.65 525.096 439.65 515.702C439.65 506.307 432.034 498.692 422.64 498.692C413.245 498.692 405.63 506.307 405.63 515.702C405.63 525.096 413.245 532.712 422.64 532.712Z" stroke="#FB5D64" stroke-width="3" stroke-linecap="round" stroke-linejoin="round"/>
<path d="M232.15 90.0017L326.33 110.002L206.47 200.002L232.15 90.0017Z" stroke="#FB5D64" stroke-width="3" stroke-linecap="round" stroke-linejoin="round"/>
<path d="M755.12 352.722H583.99V606.512H755.12V352.722Z" fill="white"/>
<path d="M722.91 430.852C722.91 441.406 719.78 451.723 713.916 460.498C708.053 469.273 699.718 476.112 689.968 480.151C680.217 484.189 669.487 485.245 659.136 483.186C648.785 481.126 639.277 476.043 631.815 468.579C624.353 461.116 619.272 451.607 617.214 441.256C615.156 430.904 616.214 420.175 620.255 410.425C624.295 400.675 631.136 392.342 639.912 386.48C648.688 380.618 659.006 377.49 669.56 377.492C683.71 377.494 697.28 383.117 707.285 393.124C717.289 403.131 722.91 416.701 722.91 430.852" fill="#F3F3F3"/>
<path d="M736.05 508.572H603.07V537.802H736.05V508.572Z" fill="#FB5D64"/>
<path d="M736.05 558.512H603.07V587.742H736.05V558.512Z" fill="#FB5D64"/>
<path d="M38.1498 539.642C37.8898 545.392 33.6498 586.542 28.4698 602.082C45.8198 599.792 140.37 581.082 168.81 564.642C166.55 549.262 46.4598 538.042 38.1498 539.642Z" fill="#3C3744"/>
<path d="M94.5099 231.852C94.5099 236.935 93.0026 241.904 90.1786 246.13C87.3547 250.356 83.3409 253.65 78.6448 255.595C73.9488 257.541 68.7814 258.05 63.7961 257.058C58.8107 256.066 54.2314 253.619 50.6372 250.024C47.043 246.43 44.5953 241.851 43.6037 236.866C42.6121 231.88 43.121 226.713 45.0662 222.017C47.0113 217.321 50.3054 213.307 54.5317 210.483C58.7581 207.659 63.7269 206.152 68.8099 206.152C72.1852 206.15 75.5277 206.814 78.6464 208.105C81.7651 209.396 84.5987 211.289 86.9855 213.676C89.3722 216.063 91.2652 218.897 92.5563 222.015C93.8473 225.134 94.5112 228.476 94.5099 231.852" fill="#010101"/>
<path d="M174.86 276.412C176.69 275.552 179.35 269.762 179.35 261.182C179.35 239.852 163.15 229.852 137.24 229.852C119.15 229.852 97.8299 236.612 84.2399 261.992C74.0899 280.852 69.9599 322.492 61.4899 337.472C56.1299 346.942 44.7599 366.122 36.0299 384.162C32.7499 388.742 16.2599 423.682 41.4399 435.162C66.6199 446.642 183.55 441.922 186.66 436.992C189.77 432.062 172.29 396.852 166.54 389.722C160.79 382.592 152.54 373.522 157.24 338.452C161.94 303.382 157.69 282.712 161.72 281.042C165.75 279.372 170.64 279.272 174.86 276.412" fill="#010101"/>
<path d="M109.87 300.952C109.87 303.11 109.23 305.219 108.031 307.013C106.832 308.807 105.128 310.206 103.135 311.031C101.141 311.857 98.9477 312.073 96.8314 311.652C94.715 311.231 92.7711 310.192 91.2453 308.666C89.7195 307.14 88.6804 305.197 88.2594 303.08C87.8385 300.964 88.0545 298.77 88.8803 296.777C89.706 294.783 91.1044 293.079 92.8985 291.88C94.6927 290.682 96.802 290.042 98.9598 290.042C101.853 290.044 104.626 291.195 106.671 293.24C108.717 295.286 109.867 298.059 109.87 300.952" fill="white"/>
<path d="M34.0098 535.512C33.7498 541.262 29.5098 582.412 24.3298 597.952" stroke="#1B3C87" stroke-width="3.69" stroke-linecap="round" stroke-linejoin="round"/>
<path d="M275.73 365.492C284.18 352.112 281.73 336.682 278.1 341.432C276.89 343.022 261.1 375.012 257.95 378.262C255.5 378.342 253.55 378.662 252.73 379.332C249.53 381.932 250.73 400.152 249.53 401.752C248.33 403.352 202.68 473.432 200.67 475.632C200.47 476.432 194.67 449.412 192.9 444.632C188.34 448.312 176.99 454.822 173.57 455.932C173.96 459.022 175.88 497.222 173.57 509.632C175.51 513.472 187.23 525.112 192.21 525.112C201.8 525.112 212 521.422 214.68 519.572C225.87 511.892 269.05 412.722 272.21 410.662C278.52 406.522 289.03 392.242 290.5 383.202C290.5 379.202 293.78 376.592 275.7 365.462" fill="white"/>
<path d="M148.26 379.172C176.43 369.972 202.06 433.932 200.06 439.092C198.06 444.252 169.62 459.672 163.42 458.852C157.22 458.032 137.32 382.722 148.26 379.152" fill="#D90429"/>
<path d="M144.15 375.042C172.32 365.842 197.95 429.812 195.95 434.962C193.95 440.112 165.51 455.542 159.31 454.742C153.11 453.942 133.15 378.612 144.15 375.042Z" stroke="#1B3C87" stroke-width="3.69" stroke-linecap="round" stroke-linejoin="round"/>
<path d="M114.35 363.182C194.08 365.052 173.94 543.122 170.28 549.482C165.35 558.042 63.2799 565.812 38.9399 541.932C33.3099 536.412 38.6599 361.412 114.35 363.182" fill="#D90429"/>
<path d="M100.98 359.752C104.029 359.21 107.124 358.978 110.22 359.062C134.72 359.632 149.79 376.842 158.81 400.602" stroke="#1B3C87" stroke-width="3.69" stroke-linecap="round" stroke-linejoin="round"/>
<path d="M170.55 465.032C172.71 505.402 167.78 542.512 166.15 545.352C161.22 553.912 59.1499 561.682 34.8099 537.802C29.6899 532.802 33.6499 387.462 91.4199 362.632" stroke="#1B3C87" stroke-width="3.69" stroke-linecap="round" stroke-linejoin="round"/>
<path d="M168.15 256.712C168.31 266.612 99.2998 275.982 98.9198 290.042C98.5398 304.102 98.3098 312.222 98.3098 312.222C100.78 325.332 95.4298 371.682 93.9198 376.522C99.7098 381.912 128.75 381.522 131.92 378.262C131.51 375.002 131.57 352.802 132.4 350.262C133.62 350.426 134.849 350.509 136.08 350.512C158.29 350.512 176.3 324.302 176.3 291.962C176.3 275.062 176.02 270.592 168.17 256.682" fill="white"/>
<path d="M73.1998 368.592C104.07 378.182 85.5898 452.962 79.6898 455.912C73.7898 458.862 15.9698 442.342 14.7898 435.852C13.6098 429.362 33.8698 356.362 73.1998 368.592Z" fill="#D90429"/>
<path d="M86.4298 403.002C86.1798 425.732 78.8798 450.122 75.5598 451.782C69.6598 454.732 11.8398 438.212 10.6598 431.722C10.3098 429.812 11.8098 422.172 15.1098 412.632" stroke="#1B3C87" stroke-width="3.69" stroke-linecap="round" stroke-linejoin="round"/>
<path d="M31.3699 380.732C40.8299 368.192 53.4499 359.602 69.0699 364.462C70.3343 364.849 71.5544 365.368 72.7099 366.012" stroke="#1B3C87" stroke-width="3.69" stroke-linecap="round" stroke-linejoin="round"/>
<path d="M218.49 438.672C231.18 419.352 244.78 398.542 245.43 397.672C246.63 396.072 245.43 377.852 248.63 375.252C251.83 372.652 272.23 375.252 272.23 377.572C272.23 379.892 263.9 387.572 261.86 388.142" stroke="#1B3C87" stroke-width="3.69" stroke-linecap="round" stroke-linejoin="round"/>
<path d="M189.02 441.182C190.79 445.972 196.37 472.362 196.57 471.562C197.08 470.992 200.43 466.022 205.16 458.902" stroke="#1B3C87" stroke-width="3.69" stroke-linecap="round" stroke-linejoin="round"/>
<path d="M271.6 361.362C280.05 347.982 277.6 332.552 273.97 337.302C272.76 338.892 256.97 370.882 253.82 374.132" stroke="#1B3C87" stroke-width="3.69" stroke-linecap="round" stroke-linejoin="round"/>
<path d="M274.42 364.852C273.29 366.992 268.11 375.622 268.11 375.622" stroke="#1B3C87" stroke-width="3.69" stroke-linecap="round" stroke-linejoin="round"/>
<path d="M279.96 368.262C277.762 373.236 275.177 378.031 272.23 382.602" stroke="#1B3C87" stroke-width="3.69" stroke-linecap="round" stroke-linejoin="round"/>
<path d="M284.93 371.982C282.357 377.564 279.403 382.964 276.09 388.142" stroke="#1B3C87" stroke-width="3.69" stroke-linecap="round" stroke-linejoin="round"/>
<path d="M271.54 403.732C270.485 404.778 269.337 405.725 268.11 406.562C264.95 408.632 221.77 507.792 210.58 515.482C207.9 517.322 197.7 521.012 188.11 521.012C183.11 521.012 172.48 511.012 170.55 507.202" stroke="#1B3C87" stroke-width="3.69" stroke-linecap="round" stroke-linejoin="round"/>
<path d="M286.4 379.102C285.79 382.872 283.6 387.552 280.81 392.032" stroke="#1B3C87" stroke-width="3.69" stroke-linecap="round" stroke-linejoin="round"/>
<path d="M163.15 324.902C155.77 338.032 144.56 346.412 132 346.412C124 346.412 116.51 342.992 110.23 337.102" stroke="#1B3C87" stroke-width="3.69" stroke-linecap="round" stroke-linejoin="round"/>
<path d="M164.04 252.582C169.507 263.527 172.287 275.618 172.15 287.852C172.167 294.024 171.497 300.179 170.15 306.202" stroke="#1B3C87" stroke-width="3.69" stroke-linecap="round" stroke-linejoin="round"/>
<path d="M100.98 305.762C99.4225 306.835 97.6125 307.483 95.7283 307.644C93.844 307.805 91.9503 307.472 90.2337 306.679C88.517 305.885 87.0365 304.659 85.938 303.119C84.8395 301.58 84.1608 299.781 83.9687 297.9C83.7766 296.018 84.0777 294.119 84.8425 292.39C85.6072 290.66 86.8092 289.159 88.3301 288.036C89.851 286.912 91.6383 286.203 93.5162 285.98C95.3941 285.756 97.2978 286.026 99.0399 286.762" stroke="#1B3C87" stroke-width="3.69" stroke-linecap="round" stroke-linejoin="round"/>
<path d="M134.22 284.522C134.22 286.832 133.22 288.712 131.94 288.712C130.66 288.712 129.67 286.832 129.67 284.522C129.67 282.212 130.67 280.322 131.94 280.322C133.21 280.322 134.22 282.202 134.22 284.522Z" fill="#1B3C87"/>
<path d="M154.99 304.112C155.372 304.865 155.842 305.57 156.39 306.212" stroke="#1B3C87" stroke-width="3.69" stroke-linecap="round" stroke-linejoin="round"/>
<path d="M152.76 291.212C152.545 294.283 152.825 297.369 153.59 300.352" stroke="#1B3C87" stroke-width="3.69" stroke-linecap="round" stroke-linejoin="round"/>
<path d="M121.43 312.392C121.87 315.332 125.11 319.152 129.66 320.622" stroke="#1B3C87" stroke-width="3.69" stroke-linecap="round" stroke-linejoin="round"/>
<path d="M127.79 374.132C127.38 370.872 127.44 348.672 128.27 346.132" stroke="#1B3C87" stroke-width="3.69" stroke-linecap="round" stroke-linejoin="round"/>
<path d="M92.5898 352.722C91.5898 362.572 90.3898 370.532 89.8098 372.392C92.1098 374.532 98.0598 375.752 104.61 376.252" stroke="#1B3C87" stroke-width="3.69" stroke-linecap="round" stroke-linejoin="round"/>
<path d="M94.1998 308.102C95.1998 313.192 94.9398 323.292 94.1998 334.032" stroke="#1B3C87" stroke-width="3.69" stroke-linecap="round" stroke-linejoin="round"/>
<path d="M45.6598 245.002C42.7602 241.813 40.7095 237.945 39.6966 233.756C38.6837 229.567 38.7412 225.19 39.8637 221.028C40.9862 216.867 43.1377 213.055 46.1201 209.943C49.1025 206.831 52.8198 204.52 56.9298 203.222" stroke="#1B3C87" stroke-width="3.69" stroke-linecap="round" stroke-linejoin="round"/>
<path d="M88.3598 217.732C90.2159 222.123 90.815 226.944 90.0902 231.656C89.3654 236.368 87.3453 240.785 84.2553 244.416C81.1652 248.046 77.127 250.746 72.5914 252.215C68.0557 253.683 63.2012 253.862 58.5698 252.732" stroke="#1B3C87" stroke-width="3.69" stroke-linecap="round" stroke-linejoin="round"/>
<path d="M154.34 228.662C167.54 233.062 175.22 242.392 175.22 257.052C175.22 265.632 172.56 271.422 170.72 272.282" stroke="#1B3C87" stroke-width="3.69" stroke-linecap="round" stroke-linejoin="round"/>
<path d="M64.6798 311.632C69.1998 293.402 73.2898 270.482 80.0898 257.812C92.8398 234.022 112.37 226.602 129.67 225.812" stroke="#1B3C87" stroke-width="3.69" stroke-linecap="round" stroke-linejoin="round"/>
<path d="M31.8999 380.032C37.8999 367.622 45.1599 354.662 50.8999 344.712" stroke="#1B3C87" stroke-width="3.69" stroke-linecap="round" stroke-linejoin="round"/>
<path d="M152.46 366.012C152.89 369.962 153.54 373.272 154.46 375.072" stroke="#1B3C87" stroke-width="3.69" stroke-linecap="round" stroke-linejoin="round"/>
<path d="M152.68 338.042C151.95 340.572 151.59 348.722 151.85 356.872" stroke="#1B3C87" stroke-width="3.69" stroke-linecap="round" stroke-linejoin="round"/>
<path d="M166.73 246.062C166.73 266.792 94.8098 268.662 94.8098 285.912" stroke="#1B3C87" stroke-width="3.69" stroke-linecap="round" stroke-linejoin="round"/>
<path d="M202.84 549.232C209.77 550.392 213.72 538.982 217.94 539.592C221.02 540.032 235.75 541.922 236.4 542.942C237.05 543.962 234.64 554.582 234.64 554.582" fill="#F9F9F9"/>
<path d="M129.852 536.931L118.905 601.996L223.693 619.626L234.639 554.56L129.852 536.931Z" fill="#F9F9F9"/>
<path d="M224.49 586.272L219.57 615.512L158.81 605.292" stroke="#1B3C87" stroke-width="3.69" stroke-linecap="round" stroke-linejoin="round"/>
<path d="M230.52 550.452L228.46 562.682" stroke="#1B3C87" stroke-width="3.69" stroke-linecap="round" stroke-linejoin="round"/>
<path d="M124.33 599.492L114.78 597.852L125.78 532.782L215.01 547.782" stroke="#1B3C87" stroke-width="3.69" stroke-linecap="round" stroke-linejoin="round"/>
<path d="M198.71 545.102C205.64 546.262 209.6 534.852 213.81 535.462C216.89 535.902 231.62 537.792 232.27 538.812C232.92 539.832 230.51 550.452 230.51 550.452" stroke="#1B3C87" stroke-width="3.69" stroke-linecap="round" stroke-linejoin="round"/>
<path d="M203.374 556.597L198.701 584.377L213.927 586.939L218.6 559.159L203.374 556.597Z" fill="#FB5D64"/>
<path d="M134.76 550.452L194.59 560.512" stroke="#1B3C87" stroke-width="3.69" stroke-linecap="round" stroke-linejoin="round"/>
<path d="M183.42 571.702L192.32 573.202" stroke="#1B3C87" stroke-width="3.69" stroke-linecap="round" stroke-linejoin="round"/>
<path d="M132.5 563.142L166.87 568.922" stroke="#1B3C87" stroke-width="3.69" stroke-linecap="round" stroke-linejoin="round"/>
<path d="M199.73 553.262C198.17 541.262 194.56 528.522 169.05 529.622C165.6 526.852 98.5999 507.852 58.1999 497.372C62.8999 487.662 68.3799 458.072 68.6599 455.372C65.6599 454.812 21.3899 441.192 21.3899 441.192C21.3899 441.192 2.87986 518.592 6.89986 525.062C31.6699 540.842 124.59 552.212 166.54 549.262C169.48 551.572 169.08 553.022 173.25 553.612C177.42 554.202 199.73 553.262 199.73 553.262" fill="white"/>
<path d="M119.79 511.202C143.67 518.042 163.1 524.012 164.91 525.492C190.44 524.392 194.04 537.082 195.6 549.132" stroke="#1B3C87" stroke-width="3.69" stroke-linecap="round" stroke-linejoin="round"/>
<path d="M64.5298 451.282C64.2398 453.942 58.7598 483.532 54.0698 493.282C68.1298 496.912 85.4198 501.582 102.13 506.282" stroke="#1B3C87" stroke-width="3.69" stroke-linecap="round" stroke-linejoin="round"/>
<path d="M173.51 537.852C174.667 541.962 175.091 546.244 174.76 550.502" stroke="#1B3C87" stroke-width="3.69" stroke-linecap="round" stroke-linejoin="round"/>
<path d="M181.21 537.852C182.377 541.96 182.8 546.244 182.46 550.502" stroke="#1B3C87" stroke-width="3.69" stroke-linecap="round" stroke-linejoin="round"/>
<path d="M187.42 537.852C188.579 541.962 188.998 546.245 188.66 550.502" stroke="#1B3C87" stroke-width="3.69" stroke-linecap="round" stroke-linejoin="round"/>
<path d="M3.79986 501.172C2.04986 511.952 1.30986 520.012 2.79986 520.932C37.4299 542.932 142.09 546.372 162.44 545.132" stroke="#1B3C87" stroke-width="3.69" stroke-linecap="round" stroke-linejoin="round"/>
<path d="M17.2598 437.102C16.8798 438.442 13.3098 453.442 9.71985 470.412" stroke="#1B3C87" stroke-width="3.69" stroke-linecap="round" stroke-linejoin="round"/>
</svg>
